<?xml version="1.0" encoding="UTF-8" standalone="no"?>
<!-- Created with Inkscape (http://www.inkscape.org/) -->

<svg
   width="512"
   height="512"
   viewBox="0 0 512 512"
   version="1.1"
   id="svg5"
   inkscape:version="1.2.1 (9c6d41e410, 2022-07-14)"
   xml:space="preserve"
   sodipodi:docname="ThreeJS.svg"
   xmlns:inkscape="http://www.inkscape.org/namespaces/inkscape"
   xmlns:sodipodi="http://sodipodi.sourceforge.net/DTD/sodipodi-0.dtd"
   xmlns:xlink="http://www.w3.org/1999/xlink"
   xmlns="http://www.w3.org/2000/svg"
   xmlns:svg="http://www.w3.org/2000/svg"
   xmlns:rdf="http://www.w3.org/1999/02/22-rdf-syntax-ns#"
   xmlns:cc="http://creativecommons.org/ns#"
   xmlns:dc="http://purl.org/dc/elements/1.1/"><sodipodi:namedview
     id="namedview7"
     pagecolor="#d5d9ff"
     bordercolor="#2261ff"
     borderopacity="0.36862745"
     inkscape:showpageshadow="false"
     inkscape:pageopacity="0"
     inkscape:pagecheckerboard="true"
     inkscape:deskcolor="#7e1100"
     inkscape:document-units="px"
     showgrid="false"
     inkscape:zoom="0.63181796"
     inkscape:cx="175.68351"
     inkscape:cy="743.88515"
     inkscape:window-width="1718"
     inkscape:window-height="1360"
     inkscape:window-x="3626"
     inkscape:window-y="0"
     inkscape:window-maximized="1"
     inkscape:current-layer="layer1"
     showborder="true"
     inkscape:lockguides="true"
     showguides="true"><sodipodi:guide
       position="0,512"
       orientation="0,512"
       id="guide300"
       inkscape:locked="true" /><sodipodi:guide
       position="512,512"
       orientation="512,0"
       id="guide302"
       inkscape:locked="true" /><sodipodi:guide
       position="512,0"
       orientation="0,-512"
       id="guide304"
       inkscape:locked="true" /><sodipodi:guide
       position="0,0"
       orientation="-512,0"
       id="guide306"
       inkscape:locked="true" /></sodipodi:namedview><defs
     id="defs2"><color-profile
       name="sRGB-IEC61966-2.1"
       xlink:href="file:///WINDOWS/system32/spool/drivers/color/sRGB%20Color%20Space%20Profile.icm"
       id="color-profile1410" /><color-profile
       name="Agfa-:-Swop-Standard"
       xlink:href="file:///WINDOWS/system32/spool/drivers/color/RSWOP.icm"
       id="color-profile1412" /></defs><g
     inkscape:label="Laag 1"
     inkscape:groupmode="layer"
     id="layer1"><path
       style="fill:#ffffff;stroke-width:1.20313;fill-opacity:1"
       d="m 126.27895,438.04442 c -7.52225,-30.13625 -13.47219,-54.99503 -13.22209,-55.24176 0.5466,-0.53919 107.67234,29.75631 108.63968,30.72367 0.62493,0.62493 -78.90123,78.32642 -80.86166,79.00634 -0.48351,0.16771 -7.03367,-24.35201 -14.55593,-54.48825 z m 41.37356,-45.90589 c -29.11578,-8.29708 -53.07431,-15.2052 -53.24119,-15.35137 -0.29555,-0.25887 8.61112,-9.04133 53.13728,-52.3962 27.76888,-27.03838 28.62211,-27.84736 28.9257,-27.42522 0.14031,0.19512 6.47122,25.12424 14.06866,55.39803 11.18062,44.55183 13.4546,55.02582 11.93042,54.95181 -1.03569,-0.0503 -25.70509,-6.87996 -54.82087,-15.17705 z m 61.94526,13.94772 c -0.008,-0.26616 -6.20458,-25.10333 -13.76841,-55.19374 -7.56382,-30.0904 -13.55325,-54.90897 -13.30983,-55.15239 0.6748,-0.6748 108.90716,30.17717 108.90716,31.04433 0,1.18805 -81.79087,80.45298 -81.82892,79.3018 z M 96.098951,318.05864 c -7.503916,-29.93419 -13.857617,-55.0248 -14.119322,-55.75691 -0.362395,-1.01376 92.643451,24.30838 107.627901,29.3032 2.59593,0.86531 0.11647,3.57548 -30.01591,32.80954 -18.06506,17.52648 -36.67138,35.51215 -41.34737,39.96815 l -8.5018,8.10183 z M 258.19502,305.3408 c -29.6083,-8.38149 -53.83635,-15.57477 -53.84013,-15.98506 -0.0143,-1.54879 81.13075,-79.21006 81.869,-78.35418 0.65879,0.76376 27.60907,107.28931 27.60907,109.1295 0,0.9884 1.66403,1.43075 -55.63794,-14.79026 z m 47.4696,-41.40718 c -7.46642,-29.94293 -13.55568,-54.76198 -13.53168,-55.15345 0.0426,-0.69452 108.12483,29.58678 109.10626,30.5682 0.59644,0.59645 -79.94467,79.02693 -81.15362,79.02693 -0.46509,0 -6.95453,-24.49875 -14.42096,-54.44168 z m -166.59414,7.56279 c -29.61629,-8.414 -54.1324,-15.58281 -54.480237,-15.93065 -0.646815,-0.64681 79.853247,-79.15994 81.163227,-79.15994 0.83631,0 28.30287,109.3743 27.61953,109.98346 -0.2501,0.22296 -24.68625,-6.47883 -54.30252,-14.89287 z m 59.93729,11.88602 c -1.34269,-3.78054 -27.20727,-108.51782 -26.87921,-108.8459 0.49024,-0.49022 107.65707,29.97482 108.52984,30.85254 0.38813,0.39031 -15.69931,16.63258 -35.74987,36.09393 -47.24719,45.8588 -45.16848,43.96129 -45.90076,41.89943 z M 78.142386,246.55873 C 72.689795,225.92157 51.784847,140.87945 52.08954,140.57476 c 0.43563,-0.43563 108.00562,29.8959 108.94575,30.71944 0.60728,0.53199 -51.8606,52.21321 -71.220173,70.15236 l -10.462044,9.69443 z M 397.45059,232.33531 c -2.6469,-0.89697 -26.19819,-7.63721 -52.33622,-14.97832 -26.13803,-7.34111 -48.48524,-13.73882 -49.66046,-14.21713 -2.09614,-0.85312 9.50994,-12.58987 67.72635,-68.48886 l 12.65179,-12.14817 13.68108,54.32273 c 7.52459,29.87751 13.92275,54.99949 14.21814,55.82664 0.64997,1.82012 -0.0838,1.7831 -6.28068,-0.31689 z m 10.33079,-5.0972 c -4.80155,-18.17846 -26.35657,-105.59076 -26.10074,-105.84658 0.25782,-0.2578 103.43519,28.5513 108.66435,30.34118 1.29091,0.44186 -78.93941,80.01714 -80.67583,80.01714 -0.38285,0 -1.23235,-2.03028 -1.88778,-4.51174 z m -141.47211,-32.0778 c -7.27894,-2.12818 -31.26889,-8.94756 -53.311,-15.15419 l -40.07654,-11.2848 31.66427,-30.74778 c 46.36145,-45.019541 51.49666,-49.901643 51.49666,-48.95846 0,0.87849 26.01023,104.36092 27.18209,108.14475 0.88939,2.87173 -1.09468,2.63776 -16.95548,-1.99952 z m 8.77246,-52.44217 c -7.6636,-30.43922 -13.53998,-55.344035 -13.0586,-55.344035 0.48138,0 15.17792,4.040452 32.65897,8.978777 17.48106,4.938328 41.93358,11.841298 54.33895,15.339918 12.40536,3.49863 22.48215,6.63186 22.39287,6.96271 -0.0893,0.33087 -9.1563,9.24757 -20.14894,19.81491 -10.99265,10.56734 -29.22434,28.29848 -40.5149,39.40254 -11.29055,11.10407 -20.79968,20.18921 -21.1314,20.18921 -0.33171,0 -6.87334,-24.90481 -14.53695,-55.34403 z m -167.58579,7.50665 c -29.115779,-8.30204 -53.208483,-15.33174 -53.539345,-15.62157 -0.572823,-0.50176 29.69985,-30.28512 65.173875,-64.120405 13.15549,-12.547769 16.5836,-15.256511 17.12931,-13.534793 0.86585,2.731781 27.18176,107.389298 27.18176,108.100978 0,1.05116 -3.81293,0.0408 -55.9456,-14.82421 z m 47.66604,-40.65974 c -7.53153,-30.117811 -13.37221,-55.081126 -12.97931,-55.47402 0.3929,-0.392907 24.15085,5.894404 52.79544,13.971807 28.64458,8.07739 53.02853,14.95118 54.18654,15.2751 1.15801,0.323907 2.03134,0.958498 1.94072,1.410202 -0.0906,0.451691 -8.88852,9.200886 -19.55088,19.442631 -10.66237,10.24177 -28.92,27.97292 -40.57251,39.40256 -11.65252,11.42964 -21.39788,20.76997 -21.65636,20.75628 -0.2585,-0.0137 -6.63213,-24.66674 -14.16364,-54.78456 z M 34.880768,74.633535 C 27.366817,44.502988 21.411316,19.680368 21.646324,19.472166 22.191595,18.989096 129.47221,49.394342 130.36201,50.284142 131.10443,51.026558 50.908499,129.50304 49.461564,129.45002 48.956081,129.43149 42.39472,104.76408 34.880768,74.633535 Z"
       id="path367"
       sodipodi:nodetypes="sssssssssssscssscssssscssssssssssssssssssssssssscssssscsssssssssscsssssssssssssssssssssssssssssssss" /></g><metadata
     id="metadata312"><rdf:RDF><cc:Work
         rdf:about=""><dc:creator><cc:Agent><dc:title>httpd://github.com/daveinchy</dc:title></cc:Agent></dc:creator><cc:license
           rdf:resource="http://artlibre.org/licence/lal" /></cc:Work><cc:License
         rdf:about="http://artlibre.org/licence/lal"><cc:permits
           rdf:resource="http://creativecommons.org/ns#Reproduction" /><cc:permits
           rdf:resource="http://creativecommons.org/ns#Distribution" /><cc:permits
           rdf:resource="http://creativecommons.org/ns#DerivativeWorks" /><cc:requires
           rdf:resource="http://creativecommons.org/ns#ShareAlike" /><cc:requires
           rdf:resource="http://creativecommons.org/ns#Notice" /><cc:requires
           rdf:resource="http://creativecommons.org/ns#Attribution" /></cc:License></rdf:RDF></metadata></svg>
