<?xml version="1.0" encoding="UTF-8" standalone="no"?>
<!-- Created with Inkscape (http://www.inkscape.org/) -->

<svg
   width="512"
   height="512"
   viewBox="0 0 512 512"
   version="1.1"
   id="svg5"
   inkscape:version="1.2.1 (9c6d41e410, 2022-07-14)"
   xml:space="preserve"
   sodipodi:docname="WhiteSplash.svg"
   xmlns:inkscape="http://www.inkscape.org/namespaces/inkscape"
   xmlns:sodipodi="http://sodipodi.sourceforge.net/DTD/sodipodi-0.dtd"
   xmlns:xlink="http://www.w3.org/1999/xlink"
   xmlns="http://www.w3.org/2000/svg"
   xmlns:svg="http://www.w3.org/2000/svg"
   xmlns:rdf="http://www.w3.org/1999/02/22-rdf-syntax-ns#"
   xmlns:cc="http://creativecommons.org/ns#"
   xmlns:dc="http://purl.org/dc/elements/1.1/"><sodipodi:namedview
     id="namedview7"
     pagecolor="#d5d9ff"
     bordercolor="#2261ff"
     borderopacity="0.36862745"
     inkscape:showpageshadow="false"
     inkscape:pageopacity="0"
     inkscape:pagecheckerboard="true"
     inkscape:deskcolor="#7e1100"
     inkscape:document-units="px"
     showgrid="false"
     inkscape:zoom="0.89352553"
     inkscape:cx="232.22616"
     inkscape:cy="454.37985"
     inkscape:window-width="1718"
     inkscape:window-height="1360"
     inkscape:window-x="3626"
     inkscape:window-y="0"
     inkscape:window-maximized="0"
     inkscape:current-layer="layer1"
     showborder="true"
     inkscape:lockguides="true"
     showguides="true"><sodipodi:guide
       position="0,512"
       orientation="0,512"
       id="guide300"
       inkscape:locked="true" /><sodipodi:guide
       position="512,512"
       orientation="512,0"
       id="guide302"
       inkscape:locked="true" /><sodipodi:guide
       position="512,0"
       orientation="0,-512"
       id="guide304"
       inkscape:locked="true" /><sodipodi:guide
       position="0,0"
       orientation="-512,0"
       id="guide306"
       inkscape:locked="true" /></sodipodi:namedview><defs
     id="defs2"><linearGradient
       inkscape:collect="always"
       id="linearGradient1120"><stop
         style="stop-color:#ffffff;stop-opacity:1;"
         offset="0.92747569"
         id="stop1116" /><stop
         style="stop-color:#ffffff;stop-opacity:0;"
         offset="1"
         id="stop1118" /></linearGradient><color-profile
       name="sRGB-IEC61966-2.1"
       xlink:href="file:///WINDOWS/system32/spool/drivers/color/sRGB%20Color%20Space%20Profile.icm"
       id="color-profile1497" /><color-profile
       name="Agfa-:-Swop-Standard"
       xlink:href="file:///WINDOWS/system32/spool/drivers/color/RSWOP.icm"
       id="color-profile1499" /><radialGradient
       inkscape:collect="always"
       xlink:href="#linearGradient1120"
       id="radialGradient1124"
       cx="254.90681"
       cy="292.86697"
       fx="254.90681"
       fy="292.86697"
       r="252.97466"
       gradientTransform="matrix(1,0,0,0.85580155,0,42.230962)"
       gradientUnits="userSpaceOnUse" /></defs><g
     inkscape:label="Laag 1"
     inkscape:groupmode="layer"
     id="layer1"><path
       style="fill:url(#radialGradient1124);stroke-width:1.90454;fill-opacity:1"
       d="m 297.70081,502.02354 c 0.56803,-5.95623 -0.25607,-8.31176 -4.33484,-12.39054 -2.76991,-2.76991 -6.17697,-4.59844 -7.57127,-4.0634 -1.44076,0.55287 -3.4419,-1.01746 -4.63582,-3.63779 -1.67749,-3.68173 -3.54782,-4.61649 -9.28356,-4.63977 -5.33887,-0.0216 -6.44944,-0.50311 -4.32604,-1.87538 5.3097,-3.43138 5.66437,-3.2566 27.13963,13.37446 4.11055,3.18333 5.23747,5.63986 5.23747,11.41694 0,4.04849 -0.65856,7.76789 -1.46346,8.26536 -0.80491,0.49745 -1.14783,-2.40499 -0.76211,-6.44988 z m 79.72913,2.85322 c -7.11938,-6.26335 -19.18025,-6.48051 -25.58801,-0.46076 -3.59053,3.37313 -4.25009,3.55349 -3.22488,0.88184 1.52876,-3.98395 10.42691,-8.9313 16.06348,-8.9313 5.65136,0 14.75516,5.06503 17.15136,9.54239 2.57709,4.8153 2.12396,4.70905 -4.40195,-1.03217 z M 98.84135,500.0025 c -2.444712,-2.70136 -3.611625,-6.85028 -3.62811,-12.89963 -0.01719,-6.33674 -1.264461,-10.49483 -4.309516,-14.36775 -2.356855,-2.99767 -4.285199,-7.54324 -4.285199,-10.10127 0,-4.74868 9.320889,-15.78519 13.331357,-15.78519 1.208448,0 -0.439714,2.21878 -3.662549,4.93062 -6.693545,5.63224 -7.850296,14.2343 -2.87027,21.34431 l 2.98946,4.26806 5.569487,-3.96582 c 3.7605,-2.67771 7.58362,-3.71605 11.77066,-3.19681 l 6.2012,0.769 -5.93003,0.30477 c -12.93462,0.66484 -20.649454,17.53836 -13.00731,28.44905 3.73974,5.33921 2.55934,5.47562 -2.16918,0.25066 z m 344.46679,-1.59081 c 5.46144,-6.49056 6.48647,-12.90943 3.15984,-19.7873 -1.81508,-3.75269 -1.61565,-3.70378 2.03686,0.49962 3.34605,3.8507 4.35153,4.18133 5.79198,1.90453 4.58128,-7.24126 -8.7e-4,-24.33443 -7.61581,-28.40984 -5.13392,-2.74757 -5.12146,-2.76209 -4.45504,5.18103 l 0.59921,7.14199 -2.41004,-6.66587 c -1.57607,-4.35925 -4.71665,-7.87998 -9.07591,-10.17455 l -6.66586,-3.50868 6.99343,0.98416 c 8.20466,1.15463 10.04319,-1.44047 7.06771,-9.97601 -4.28609,-12.29507 -19.09659,-15.4345 -28.49164,-6.03943 -3.06193,3.0619 -5.56712,6.95743 -5.56712,8.65671 0,2.45623 -1.27294,2.85079 -6.20956,1.92468 -7.61937,-1.42942 -15.9012,1.52131 -22.83459,8.13567 -6.42465,6.12906 -6.59678,8.09292 -0.70931,8.09292 2.49046,0 5.70436,1.42587 7.14199,3.16861 2.36286,2.86434 2.21439,2.95579 -1.54613,0.95227 -5.16921,-2.75403 -12.99829,-2.85065 -17.91177,-0.22105 -3.41825,1.82941 -3.48703,2.33975 -0.82706,6.13739 4.47401,6.38757 3.43193,7.933 -1.49045,2.21038 -2.7419,-3.18763 -6.31914,-5.10559 -9.52266,-5.10559 -2.82206,0 -5.13101,-0.84987 -5.13101,-1.8886 0,-1.03874 1.71407,-1.44036 3.80906,-0.8925 5.18566,1.35608 4.87619,-2.69444 -0.59888,-7.838 -5.62923,-5.28837 -15.17405,-5.37444 -22.43766,-0.2023 -6.62685,4.71876 -6.83364,5.99701 -1.36947,8.46524 2.28909,1.03401 4.55689,3.16559 5.03959,4.73682 0.69137,2.25068 0.0796,2.14967 -2.88357,-0.47614 -4.43636,-3.93126 -8.33392,-4.23861 -12.07632,-0.95226 -1.49106,1.30936 -1.16285,0.52052 0.72937,-1.75297 3.3417,-4.01503 3.32231,-4.19681 -0.6755,-6.33639 -5.92131,-3.16899 -10.25973,-1.11459 -7.70943,3.65069 1.09264,2.04166 1.93233,4.83977 1.86592,6.218 -0.0664,1.37824 -0.8751,0.63356 -1.7971,-1.65484 -3.46226,-8.59312 -13.2765,-9.5717 -10.62805,-1.05971 0.56744,1.82374 0.15845,4.60145 -0.90875,6.17268 -1.72486,2.53938 -1.88777,2.53938 -1.46613,0 0.93176,-5.61184 -2.29538,-13.09896 -6.17705,-14.33097 -2.1715,-0.68918 -3.45379,-1.74748 -2.84952,-2.35175 0.60425,-0.60427 3.04945,-0.0546 5.43376,1.22141 2.87221,1.53716 5.89157,1.7443 8.94759,0.61378 l 4.61252,-1.70627 -5.25049,-5.25046 c -4.13765,-4.13768 -6.61183,-5.09155 -11.67366,-4.5006 -3.53276,0.41243 -6.00424,0.072 -5.49214,-0.75664 0.51208,-0.82858 2.93139,-1.5065 5.37625,-1.5065 2.44485,0 4.90072,-1.18718 5.45751,-2.63817 1.25358,-3.26674 -3.72404,-10.69357 -7.16705,-10.69357 -1.39547,0 -2.41818,-1.40758 -2.27269,-3.12795 0.47276,-5.59037 -4.19489,-4.88489 -7.29081,1.10195 -3.66291,7.0833 -4.59022,7.37456 -3.38365,1.06278 0.50175,-2.62476 -0.15046,-6.05292 -1.44958,-7.61815 -1.4934,-1.79942 -1.61714,-2.84584 -0.33651,-2.84584 1.11392,0 2.55501,0.85704 3.20239,1.90454 0.6474,1.04749 1.98354,1.90453 2.96921,1.90453 2.60373,0 2.19986,-12.1622 -0.49331,-14.85537 -2.54968,-2.54968 -6.08303,-3.13577 -4.61849,-0.7661 0.51645,0.83564 0.1516,2.76397 -0.81071,4.28521 -1.37415,2.17221 -1.75596,1.87025 -1.77887,-1.40694 -0.0152,-2.29504 -0.9777,-4.75904 -2.13701,-5.47553 -1.47818,-0.91358 -1.35858,-1.76586 0.40038,-2.85294 2.02655,-1.25249 1.92504,-2.21263 -0.52854,-4.99941 -2.9133,-3.30892 -6.91759,-29.02444 -7.55694,-48.53036 l -0.27025,-8.2458 -1.29256,7.61813 c -1.24557,7.3412 -1.36435,7.44633 -3.26778,2.89212 -1.58108,-3.78297 -2.24191,0.0172 -3.31165,19.04533 -0.73502,13.07425 -1.80584,25.37852 -2.37958,27.34282 -0.74796,2.56068 -0.35435,3.14572 1.39076,2.06716 1.33868,-0.82735 0.78772,0.68658 -1.22434,3.36428 -2.47076,3.28812 -4.13376,4.16271 -5.12292,2.69418 -1.01753,-1.51069 -2.32556,-1.04592 -4.2852,1.52256 -3.99906,5.24153 -3.54373,7.81781 2.41686,13.67488 l 5.23747,5.1465 -5.17046,-3.16489 c -6.56123,-4.01621 -7.20902,-3.97056 -7.20902,0.50813 0,5.91461 5.42705,10.0243 11.4815,8.69452 2.91318,-0.63985 5.80798,-0.33605 6.4329,0.67509 0.63101,1.02098 -0.38022,1.44185 -2.27425,0.94654 -3.73334,-0.97628 -8.92065,3.82674 -10.60297,9.8175 -0.58831,2.09499 -0.8265,1.03242 -0.52932,-2.36125 0.76567,-8.7434 -6.2512,-15.37993 -13.00688,-12.30182 -2.6002,1.18474 -5.30958,4.47268 -6.02082,7.30656 -1.03518,4.12446 -0.29194,6.01376 3.72512,9.46905 4.63557,3.98738 4.74331,4.40387 1.41262,5.46098 -1.98312,0.62943 -4.66726,2.42355 -5.96479,3.98696 -1.92178,2.31563 -1.68888,3.35298 1.25642,5.59579 3.85503,2.9356 15.99501,3.20983 15.99501,0.36133 0,-0.93583 4.49946,-5.88789 9.9988,-11.0046 10.75554,-10.00718 18.04668,-11.96088 22.52937,-6.03686 2.14555,2.8354 2.1235,2.97756 -0.14779,0.95225 -3.94848,-3.52096 -10.37661,-2.89296 -14.25504,1.39268 -2.57779,2.84842 -2.89489,4.39985 -1.29364,6.32924 1.70482,2.0542 1.09378,2.40511 -3.11296,1.78769 -3.58024,-0.52548 -6.36705,0.48361 -8.8194,3.19343 -3.43451,3.79507 -3.44343,4.11834 -0.21234,7.68867 3.30405,3.65091 3.25466,3.6824 -2.41842,1.54103 -4.29823,-1.6224 -7.57632,-1.63815 -12.71479,-0.0611 -5.74003,1.76166 -6.56122,1.68839 -4.80425,-0.42861 3.62752,-4.37093 -5.19761,-5.80919 -9.92217,-1.61706 -3.8903,3.45187 -3.9159,3.44014 -1.70105,-0.78062 2.161,-4.1181 1.9392,-4.2852 -5.6878,-4.2852 -6.68822,4e-5 -20.76548,5.88218 -20.76548,8.67687 0,0.41142 2.54571,2.06445 5.65714,3.67345 3.11143,1.60898 6.66862,4.81539 7.90487,7.12536 2.01736,3.76945 1.61776,3.66982 -3.89872,-0.97199 -8.44061,-7.10228 -19.23175,-7.60946 -25.79893,-1.21255 -3.73854,3.6416 -3.73854,3.65907 0,3.71935 3.8803,0.0627 10.42203,4.10933 10.42203,6.44712 0,0.72953 -1.90477,-0.007 -4.23284,-1.63837 -8.48802,-5.94523 -22.19677,-2.29056 -29.75663,7.93295 -3.53503,4.78058 -3.80701,4.87312 -2.82036,0.95966 1.30756,-5.18625 8.87864,-11.5006 15.69327,-13.08833 2.71042,-0.6315 6.92333,-3.2188 9.36204,-5.74961 2.43872,-2.53078 6.96053,-5.10672 10.04845,-5.72431 4.6505,-0.93008 5.40567,-1.816 4.39855,-5.16008 -3.65636,-12.14076 -20.11409,-20.62768 -32.58113,-16.80144 -6.72775,2.06481 -7.18641,1.89558 -12.95755,-4.78063 -5.40456,-6.25217 -7.09164,-7.00141 -17.45242,-7.75084 -10.71646,-0.77517 -11.92099,-0.43321 -18.346336,5.20833 -3.782279,3.32088 -7.46364,7.9135 -8.18083,10.20586 -0.71719,2.29233 -3.270111,6.52013 -5.67312,9.39509 -2.403023,2.87497 -4.900709,6.90208 -5.550423,8.94912 -0.649713,2.04707 -2.808977,4.23854 -4.798378,4.86995 -4.856344,1.54134 -11.42435,12.51543 -11.42435,19.08827 0,5.14425 -0.114656,5.20412 -3.71874,1.94244 C 52.45941,484.82174 36.441705,459.35119 26.322362,438.06231 10.597079,404.9798 5.8376669,386.74381 2.7680723,347.81287 -0.86619877,301.71999 7.2704674,260.67459 28.737731,216.80895 53.337895,166.54162 92.182132,127.62816 142.44838,102.89573 c 31.95008,-15.720376 56.78794,-22.522018 93.79276,-25.684371 59.4998,-5.084724 122.87287,13.119543 169.45589,48.677161 19.63082,14.98455 26.37425,21.29817 40.54942,37.96493 43.33329,50.95007 61.80532,101.23199 61.63385,167.77088 -0.0807,31.37338 -2.48589,46.90346 -11.50275,74.27683 -10.96133,33.27627 -23.31836,57.57856 -37.28353,73.32457 -3.2516,3.66623 -7.56524,9.93889 -9.58589,13.93923 -2.02065,4.00034 -5.40596,8.20034 -7.52291,9.33329 -3.09908,1.65856 -2.84133,0.86234 1.32292,-4.08656 z M 258.16277,320.28127 c 0.97722,0.60394 1.76838,-2.36575 1.76838,-6.63761 0,-4.2518 0.85704,-7.73055 1.90453,-7.73055 1.0475,0 1.90285,-4.49946 1.90075,-9.99881 -0.004,-9.74884 -0.14646,-10.00878 -5.7136,-10.39825 -3.1404,-0.21972 -5.70982,0.39615 -5.70982,1.36861 0,0.97245 -1.23328,1.29484 -2.74064,0.71641 -3.40176,-1.30539 -6.29074,11.42442 -3.40416,14.99999 1.04778,1.29787 2.54984,6.21646 3.33788,10.93019 1.1475,6.86375 1.73261,7.81189 2.93828,4.76133 1.21912,-3.08454 1.58025,-2.54116 1.89868,2.85681 0.2772,4.6989 0.63787,5.39306 1.2223,2.35242 0.45598,-2.3724 1.62483,-3.82164 2.59742,-3.22054 z m -31.0714,-40.55551 c -0.31637,-11.91612 1.31442,-24.93492 3.08143,-24.59933 0.91656,0.17408 2.09905,-0.87408 2.62774,-2.32925 0.52871,-1.45516 0.11701,-2.12388 -0.9152,-1.48604 -1.1344,0.70109 -1.49222,-0.85039 -0.90482,-3.92321 0.91382,-4.78042 1.10792,-4.62148 3.26096,2.67041 1.25911,4.26435 3.91195,9.97884 5.89522,12.69888 3.13868,4.3047 5.00805,4.95325 14.4273,5.00537 9.80274,0.0543 11.19213,-0.46085 14.76014,-5.47164 2.16632,-3.04231 3.93875,-6.47047 3.93875,-7.61814 0,-3.14112 3.2407,-2.50581 4.54412,0.89085 0.62842,1.63763 1.99586,2.45016 3.03875,1.80561 1.13364,-0.70061 1.39184,0.14246 0.64207,2.09626 -0.69451,1.80985 -0.47231,2.78215 0.49794,2.17901 1.02287,-0.63585 1.52407,4.58455 1.20424,12.54318 l -0.54783,13.63232 6.75526,-15.23628 c 3.7154,-8.37995 6.96156,-16.12091 7.21371,-17.20213 0.25212,-1.08122 -2.84281,-6.56126 -6.87766,-12.17788 -5.65823,-7.87643 -7.74342,-9.60474 -9.1172,-7.55681 -1.20548,1.79709 -1.48024,0.50094 -0.8501,-4.01067 2.44352,-17.49532 2.64488,-41.13393 0.52866,-62.06425 l -2.32763,-23.02132 -11.13381,-18.40231 c -6.12359,-10.12127 -11.68152,-18.38694 -12.35096,-18.36814 -0.66944,0.0189 -6.35942,8.8005 -12.64437,19.51491 l -11.42721,19.48075 -1.99685,23.74722 c -1.09825,13.06095 -1.46515,31.8251 -0.81533,41.69804 1.12051,17.02418 0.95065,18.19996 -3.2903,22.77602 -2.45949,2.65384 -6.20881,7.63573 -8.33185,11.07085 l -3.86006,6.24569 6.99254,16.27703 c 3.84588,8.95236 7.25791,16.27701 7.58228,16.27701 0.32434,0 0.50439,-3.2139 0.40007,-7.14201 z m 48.07605,-31.06108 c 0,-1.10932 0.85704,-1.48726 1.90454,-0.83986 1.04749,0.64738 1.90453,1.55501 1.90453,2.01693 0,0.46193 -0.85704,0.83986 -1.90453,0.83986 -1.0475,0 -1.90454,-0.90762 -1.90454,-2.01693 z m -9.52266,28.68041 c 0,-1.05808 -5.07877,-1.90452 -11.42721,-1.90452 -6.34844,0 -11.4272,0.84644 -11.4272,1.90452 0,1.05809 5.07876,1.90454 11.4272,1.90454 6.34844,0 11.42721,-0.84645 11.42721,-1.90454 z m -0.95227,-5.7136 c -0.6474,-1.04749 -5.4117,-1.90453 -10.58735,-1.90453 -5.17565,0 -9.41027,0.85704 -9.41027,1.90453 0,1.0475 4.76431,1.90454 10.58735,1.90454 6.57323,0 10.14106,-0.72209 9.41027,-1.90454 z m -18.01306,225.78375 c -3.33898,-4.02324 -14.64069,-5.74943 -20.69951,-3.16159 -4.74405,2.02628 -4.83929,1.97761 -1.39477,-0.71296 5.17652,-4.04346 16.84701,-3.64675 22.27941,0.75737 2.4729,2.00483 3.97554,4.16813 3.33918,4.80738 -0.63635,0.63922 -2.22229,-0.12131 -3.52431,-1.6902 z m 117.07053,-10.57138 c 1.45605,-9.4891 8.61797,-16.0432 17.26327,-15.79814 3.80477,0.10773 7.66335,0.94169 8.57463,1.85298 0.93951,0.9395 -1.44266,1.3613 -5.50183,0.97419 -8.63916,-0.82386 -15.20076,3.76966 -18.86269,13.20507 l -2.4962,6.43178 z m -28.30128,-2.38066 c -3.20876,-7.58211 -8.27059,-12.22795 -14.57243,-13.37486 l -4.76133,-0.86656 5.02648,-0.25936 c 6.47964,-0.33434 12.23665,4.56818 15.90997,13.54851 1.60674,3.9281 2.49282,7.14201 1.96907,7.14201 -0.52374,0 -2.13103,-2.78538 -3.57176,-6.18974 z m -94.4125,1.18545 c -0.1965,-5.29507 4.23481,-8.8337 9.7436,-7.78075 4.00867,0.76621 3.94884,0.86164 -0.68873,1.09848 -3.68663,0.18836 -5.60309,1.695 -6.99165,5.49682 -1.62641,4.45312 -1.9354,4.63067 -2.06322,1.18545 z m 150.30783,-1.45298 c 0,-3.31803 5.60523,-7.98251 11.25117,-9.36286 5.0402,-1.23225 15.98667,2.60437 18.35249,6.43238 0.84312,1.36417 -0.49246,1.03207 -3.04805,-0.75794 -6.74503,-4.7244 -16.31911,-4.07301 -21.88083,1.48873 -2.70645,2.70643 -4.67478,3.63263 -4.67478,2.19969 z m -144.7446,-10.38836 c 0,-3.14761 7.03977,-7.91332 11.68929,-7.91332 2.59791,0 6.38712,1.33284 8.42045,2.96187 3.57122,2.86115 3.55547,2.89352 -0.46307,0.95227 -6.28254,-3.03496 -11.60829,-2.42984 -15.83761,1.79946 -2.09497,2.09499 -3.80906,3.08486 -3.80906,2.19972 z m 139.20277,-7.96567 c -0.36873,-10.33341 10.07851,-18.24213 20.12044,-15.23146 l 5.41901,1.62466 -6.71823,0.16379 c -8.69713,0.21192 -14.67602,4.51518 -16.88435,12.15239 -1.59567,5.51842 -1.78159,5.64231 -1.93687,1.29069 z M 143.78427,454.35748 c -8.12426,-4.5294 -15.42459,-4.70018 -23.45484,-0.54866 -5.46283,2.8242 -5.83237,2.83432 -3.56215,0.0973 1.39318,-1.67954 5.42999,-4.00976 8.97071,-5.17831 5.36851,-1.77178 7.83282,-1.5075 14.83815,1.5913 4.62024,2.04377 8.99016,4.67008 9.71091,5.83626 1.66784,2.69864 1.45935,2.64099 -6.50278,-1.798 z m 106.6242,-45.40418 c 0,-3.05496 7.80635,-4.59445 10.19052,-2.00965 1.66228,1.80212 1.62562,2.05557 -0.15235,1.05338 -1.28774,-0.72586 -4.07312,-0.39292 -6.18974,0.73987 -2.33115,1.2476 -3.84843,1.33292 -3.84843,0.2164 z"
       id="path481"
       sodipodi:nodetypes="ssssssssssssssssssssssscsscssssssssscsscssssssssssssssssssssssssssssssssscsssssssssssssssscsssscssssssssscssssssssssssssssssssssssssssssssssscssssssssssssssssssssssscsssssssscsssssssssssssssscssssssscsssssscssscsssscssssssssssssssssssssssssssssscssscssssssssssssssssssssssscsssssssssssssssss" /></g><metadata
     id="metadata312"><rdf:RDF><cc:Work
         rdf:about=""><dc:creator><cc:Agent><dc:title>httpd://github.com/daveinchy</dc:title></cc:Agent></dc:creator><cc:license
           rdf:resource="http://artlibre.org/licence/lal" /></cc:Work><cc:License
         rdf:about="http://artlibre.org/licence/lal"><cc:permits
           rdf:resource="http://creativecommons.org/ns#Reproduction" /><cc:permits
           rdf:resource="http://creativecommons.org/ns#Distribution" /><cc:permits
           rdf:resource="http://creativecommons.org/ns#DerivativeWorks" /><cc:requires
           rdf:resource="http://creativecommons.org/ns#ShareAlike" /><cc:requires
           rdf:resource="http://creativecommons.org/ns#Notice" /><cc:requires
           rdf:resource="http://creativecommons.org/ns#Attribution" /></cc:License></rdf:RDF></metadata></svg>
